<svg xmlns="http://www.w3.org/2000/svg" viewBox="0 0 1366.38 1556.04"><defs><style>.cls-1{fill:#bcabcc;}</style></defs><title>Asset 1</title><g id="Layer_2" data-name="Layer 2"><g id="Layer_1-2" data-name="Layer 1"><g id="TfrBDX.tif"><path class="cls-1" d="M1474.59-60c1.41,6.54-4,8.3-6.72,11.42Q1193.76,264,919.43,576.23q-49.29,56.13-98.67,112.15c-2.28,2.58-3.68,7.81-8.55,5.93,0-3.66,2.56-5.64,4.22-8.15q97.5-147.42,199.56-290.8Q1155.7,198.45,1302,7.82c17.18-22.48,35.4-43.95,51.17-67.82Z" transform="translate(-112 60)"/><path class="cls-1" d="M778.17,694.31c-5.72,1.77-7.19-4.44-9.86-7.48q-249-283.1-497.7-566.51Q195.85,35.16,121.15-50.07c-2.33-2.67-6.86-4.36-5.35-9.93H237.25c2.45,3.7,4.71,7.58,7.36,11.07C286.2,5.72,328.07,60.11,369.43,115q191.38,254,370.16,519.58C752.77,654.2,766.81,673.15,778.17,694.31Z" transform="translate(-112 60)"/><path class="cls-1" d="M814.15,741.77c4.08.94,6,5.06,8.56,8q323,367.68,645.85,735.58c2.54,2.9,7.5,4.62,6,10.68H1353.13c-14.68-22.55-31.85-42.69-48-63.8-137.27-179.29-271-362-399.24-549.72-29.67-43.44-58.9-87.28-88.2-131C815.88,748.78,811.69,746.68,814.15,741.77Z" transform="translate(-112 60)"/><path class="cls-1" d="M115.8,1496c-1.43-6.54,4-8.3,6.71-11.42q288.24-328.62,576.7-657,34.88-39.72,69.8-79.39c2.15-2.44,3.69-6,7.23-6.48,2.49,4.4-1.3,6.43-2.93,8.89q-119.46,180.62-245.6,355.28Q419,1257.1,306.43,1404.57c-19.45,25.57-39.15,50.88-58.67,76.38-3.7,4.83-8.06,9.11-10.51,15.09Z" transform="translate(-112 60)"/><path class="cls-1" d="M112,84.8c4.41-1.5,6,3.1,8.4,5.42,62.51,61.29,124.61,123.14,187.42,184Q496.28,456.95,692.31,629c27.53,24.16,55.34,47.91,82.91,72,2.48,2.17,6.73,3.35,5.88,8.66-2.4-1.7-4.73-3.53-7.2-5.09Q566.57,574.26,368.54,426.3C281.46,361.13,196.23,293,112,223.11Z" transform="translate(-112 60)"/><path class="cls-1" d="M809.58,709.18c-.08-5.42,4.13-6.92,7-9.36Q1062.78,488.58,1297,260.25c58-56.3,115.31-113.42,173-170,2.36-2.31,4-6.94,8.39-5.41V223.11c-2.6,2-5.25,4-7.79,6.12Q1267.76,399,1052.85,548.32C972.84,604.06,891.48,657.14,809.58,709.18Z" transform="translate(-112 60)"/><path class="cls-1" d="M778.17,731c-13,14.66-28.5,25.87-43,38.44Q541,938,354.21,1117.08q-116.25,111-230.14,225.18c-3.54,3.55-6.27,9.14-12.07,9V1212.93c88.8-73.9,178.9-145.67,271-214.13Q572,858.34,769.59,734.17C772.2,732.53,774.57,729.44,778.17,731Z" transform="translate(-112 60)"/><path class="cls-1" d="M1478.38,1351.25c-5.8.15-8.53-5.44-12.07-9Q1298,1173.45,1124.45,1011.71,973.58,871.28,818.13,737.5c-2.19-1.88-5.08-3-5.91-6.55,4.3-1.36,7,2.34,10.2,4.32a5926.49,5926.49,0,0,1,651.3,474c1.52,1.28,3.11,2.46,4.66,3.68Z" transform="translate(-112 60)"/><path class="cls-1" d="M1227.88-60c-.55,7-5.3,11.18-8.53,16.22q-215.83,335.55-393.7,698.84c-7.52,15.32-15.26,30.51-22.9,45.76-1.43-3.82.56-6.94,1.66-10.2,10.18-30.18,20.26-60.41,30.63-90.5C906.14,393.88,985.93,192.19,1078.19-3c8.94-18.9,19.48-36.86,26.33-57Z" transform="translate(-112 60)"/><path class="cls-1" d="M786,700.45c-14.91-34.93-32.49-68.19-49.37-101.87A6944.49,6944.49,0,0,0,367.71-49c-2.13-3.3-5.69-6-5.21-11H485.86c-.29,4.34,2.33,7.34,4,10.7q38.87,79.66,74.85,161.06c79.22,178.86,148.78,362.57,211.52,549.65,4.32,12.9,10.49,25.21,11.45,39.42a6.89,6.89,0,0,0-1.79-.38Z" transform="translate(-112 60)"/><path class="cls-1" d="M802.75,735.23q22.66,45.39,45.34,90.78a6961.4,6961.4,0,0,0,374.59,659.07c2.13,3.3,5.7,6,5.2,11H1104.52c.3-4.34-2.32-7.35-4-10.71q-39.8-81.54-76.54-164.92C943,1137,871.89,948.55,808.22,756.47,805.94,749.61,801.64,743.27,802.75,735.23Z" transform="translate(-112 60)"/><path class="cls-1" d="M362.5,1496c.52-7,5.28-11.19,8.52-16.22Q587,1143.74,765.1,780c7.37-15,15-29.84,22.54-44.75,1.4,3.81-.55,6.95-1.67,10.21C769.47,793.63,753.28,842,736.36,890,666.2,1088.9,587.3,1283.17,496.74,1471.21c-3.9,8.1-9.11,15.51-10.88,24.83Z" transform="translate(-112 60)"/><path class="cls-1" d="M782,724.78c-21.3,6.66-41.52,16.75-62.05,25.8-164,72.28-325.07,152.38-481.56,244-38.74,22.68-76.88,46.67-115.34,70-3.56,2.16-6.69,5.5-11,5.77V929.82c24.22-9.25,48.39-18.69,72.67-27.72C380.15,829.45,579.25,772.31,779.9,721.81Z" transform="translate(-112 60)"/><path class="cls-1" d="M1478.38,1070.29c-14.5-6.28-27.36-16.15-40.89-24.51-147.19-90.93-298.82-171.14-453.65-243.63-56.32-26.36-112.85-52.12-170-76a38.65,38.65,0,0,0-5.4-1.42l2.07-2.95c34.14,8.81,68.33,17.45,102.43,26.47,143.25,37.92,285.59,79.8,426,129.77,46.66,16.61,93,34.47,139.47,51.76Z" transform="translate(-112 60)"/><path class="cls-1" d="M112,365.75c9.55,3,17.44,9.83,25.94,15.13,154.65,96.48,314.24,181,477.37,257,53.43,24.91,107.05,49.28,161.28,71.87a41.27,41.27,0,0,0,5.39,1.48c.09,1.69-.93,2.37-2.07,2.94-50.11-13.12-100.29-25.93-150.32-39.44C502.46,640.45,376.25,602.19,251.49,558c-46.69-16.55-93-34.44-139.49-51.72Z" transform="translate(-112 60)"/><path class="cls-1" d="M808.4,711.27c25.22-8.11,49.17-20.18,73.51-31,156.27-69.24,309.68-145.83,459.16-232.48,43-24.95,85.77-50.58,127.92-77.45,3-1.88,5.62-4.79,9.39-4.63V506.23c-1.52.43-3.07.74-4.55,1.32q-101.62,39.81-204.7,74.45c-151.42,50.67-304.63,93.27-458.66,132.21C809.33,713.64,808.32,713,808.4,711.27Z" transform="translate(-112 60)"/><path class="cls-1" d="M609.21,1496c20.42-68.32,40.18-136.89,58.37-206,39.57-150.36,73.84-302.31,104.67-455.28,6.7-33.21,14.28-66.23,19-99.93,2.53.46,2,3,2.57,4.84q-2.18,32.25-4.34,64.5c-2.74,41.56-5.27,83.14-8.23,124.68q-6.09,85.4-12.73,170.74c-3.23,42.22-6.49,84.45-10.13,126.63q-6.93,80.41-14.54,160.76c-3.46,36.41-7.53,72.74-11.32,109.1Z" transform="translate(-112 60)"/><path class="cls-1" d="M799.09,734.82c5.37,36.49,13.5,72.29,20.77,108.31,33.13,164.16,70.2,327.15,114.08,488,15.06,55.2,31.45,109.93,47.23,164.87H857.82c-8.52-70.45-14.46-141.24-20.76-212-5.06-56.82-9.45-113.71-13.86-170.6Q814.79,1005,806.87,896.57C803.12,844.28,800,792,796.53,739.63,797.05,737.8,796.57,735.27,799.09,734.82Z" transform="translate(-112 60)"/><path class="cls-1" d="M981.17-60c-21.59,72.05-42.29,144.42-61.35,217.4-46.41,177.66-85.43,357.46-120.41,538.44a38.16,38.16,0,0,0-.32,5.37c-2.52-.44-2-3-2.57-4.8,2.13-33.32,4.19-66.66,6.41-100,2.56-38.34,5.12-76.68,7.93-115q6.24-84.84,12.85-169.63c3.2-41.15,6.47-82.3,10-123.41q6.06-69.69,12.73-139.3C850,12.71,854-23.63,857.82-60Z" transform="translate(-112 60)"/><path class="cls-1" d="M791.29,701.23c-5.37-36.49-13.5-72.3-20.77-108.31-31.14-154.36-66-307.61-106.21-459.25C647.08,68.69,628.4,4.25,609.21-60H732.57c5.63,55.64,11.72,111.24,16.79,167,5.75,63.23,10.77,126.56,15.8,189.88q8.57,107.85,16.51,215.79c4.41,61.23,8.15,122.53,12.19,183.79C793.33,698.24,793.82,700.78,791.29,701.23Z" transform="translate(-112 60)"/><path class="cls-1" d="M1478.38,789.34c-25.82-5.16-51.94-7.56-78-10.78q-78.59-9.73-157.25-18.68c-37.7-4.25-75.45-7.84-113.18-11.64-41.18-4.14-82.37-8.34-123.57-12.22q-52.39-4.93-104.83-9.14c-29.28-2.32-58.5-5.94-87.88-6.56,0-1.54-.05-3.07-.08-4.61,31.18-2.29,62.38-4.37,93.56-6.94,29.28-2.41,58.55-5.22,87.81-8q74.07-7.14,148.14-14.54c37.11-3.71,74.24-7.3,111.31-11.46,46.48-5.23,92.92-10.91,139.37-16.53,24.47-3,48.92-6.19,73.38-9.37,3.75-.49,7.45-1.4,11.18-2.12Z" transform="translate(-112 60)"/><path class="cls-1" d="M776.67,720.32c-32.22.8-64.25,4.77-96.38,7.25-28.34,2.2-56.65,5-85,7.71Q531.63,741.36,468,747.63c-37.74,3.75-75.48,7.42-113.18,11.6-47.12,5.22-94.2,10.82-141.28,16.47-30.13,3.62-60.22,7.61-90.33,11.5-3.74.49-7.45,1.42-11.17,2.14V646.7c26,3.6,51.95,7.48,78,10.73q69.16,8.64,138.4,16.62c36.13,4.13,72.29,7.79,108.45,11.47q62.26,6.33,124.55,12.31,48.61,4.67,97.26,8.92,52.41,4.59,104.86,8.82c4.4.36,8.84.11,13.27.14Z" transform="translate(-112 60)"/><path class="cls-1" d="M806.49,703.32c.26-4.42,2.62-7.11,5.79-9.14C813.82,700.08,809.58,701.23,806.49,703.32Z" transform="translate(-112 60)"/><path class="cls-1" d="M778.1,694.18l6.09,6.54C779.91,702.09,778.43,700.5,778.1,694.18Z" transform="translate(-112 60)"/><path class="cls-1" d="M802.85,735.38c-1.9.73-2-1.31-2.67-2.33l2.71-.35C802.87,733.59,802.86,734.48,802.85,735.38Z" transform="translate(-112 60)"/><path class="cls-1" d="M790.22,733.05c-.73,1-.78,3.06-2.68,2.33,0-.9,0-1.79,0-2.69Z" transform="translate(-112 60)"/><path class="cls-1" d="M800.17,703c.73-1,.77-3.06,2.68-2.32l0,2.67Z" transform="translate(-112 60)"/><path class="cls-1" d="M787.5,703.34l0-2.67c1.91-.74,2,1.31,2.68,2.32Z" transform="translate(-112 60)"/><path class="cls-1" d="M806.51,732c2.51,2,5.34,3.69,5.79,7.7C807.6,739.8,806.78,736.15,806.51,732Z" transform="translate(-112 60)"/><path class="cls-1" d="M812.32,731c-1.5.13-2.47-.49-2.56-2.35C811.09,728.8,812.63,728.62,812.32,731Z" transform="translate(-112 60)"/><path class="cls-1" d="M812.24,739.61q2.14-.23,2,2.22C812,742.89,811.6,741.82,812.24,739.61Z" transform="translate(-112 60)"/><path class="cls-1" d="M778.09,739.66c-.22-3.36,3-4.37,3.74-7.1C783.92,736.94,783.29,738.15,778.09,739.66Z" transform="translate(-112 60)"/><path class="cls-1" d="M780.61,728.69c-.09,1.85-1.06,2.47-2.55,2.35C777.75,728.64,779.28,728.8,780.61,728.69Z" transform="translate(-112 60)"/><path class="cls-1" d="M776.19,741.83q-.21-2.46,1.95-2.22C778.78,741.82,778.42,742.89,776.19,741.83Z" transform="translate(-112 60)"/></g></g></g></svg>